<?xml version="1.0" encoding="utf-8" ?>
<svg xmlns="http://www.w3.org/2000/svg" xmlns:xlink="http://www.w3.org/1999/xlink" width="500" height="500">
	<path fill="#FFFEFE" fill-opacity="0.0078431377" transform="scale(0.220167 0.220167)" d="M0 0L2271 0L2271 2271L0 2271L0 0ZM1602.87 410.56C1563.06 409.095 1525.25 400.318 1485.97 395.033C1372.61 379.779 1271.33 378.997 1161.88 414.704C1038.64 364.161 840.447 385.008 713.009 413.011C681.243 359.468 650.42 277.547 642.001 215.96C640.274 203.326 642.969 134.755 632.004 131.469C627.759 130.197 623.015 132.8 619.516 135.01C577.803 161.357 438.569 347.389 411.265 398.255Q408.168 403.988 405.285 409.831Q402.401 415.674 399.733 421.619Q397.066 427.564 394.619 433.603Q392.172 439.642 389.949 445.767Q387.725 451.891 385.728 458.094Q383.732 464.296 381.964 470.568Q380.196 476.839 378.66 483.171Q377.124 489.504 375.822 495.888C365.152 547.253 367.737 598.958 376.799 650.296C379.378 664.903 381.59 681.725 389.477 694.596C390.917 696.947 392.7 699.167 394.395 701.333C410.2 683.086 417.599 658.488 431.11 638.426C429.342 673.744 417.779 707.078 412.569 741.847C400.067 825.268 414.315 907.174 458.332 979.672C467.674 995.058 477.608 1010.65 489.73 1024C500.556 1035.92 513.659 1046.42 530.478 1047.13C543.86 1047.69 557.319 1043.57 570.226 1040.53C597.998 1034 623.914 1035.61 651.819 1041.4C703.198 1052.06 745.031 1078.36 790.566 1102.57C821.748 1119.14 854.16 1134.6 887.234 1147.04Q904.079 1153.57 921.43 1158.6Q938.78 1163.63 956.504 1167.13C962.689 1168.34 979.173 1169.74 983.693 1173.71C986.086 1175.81 986.431 1180.1 985.981 1183.03C982.629 1204.91 951.088 1229.95 934.076 1241.53C920.559 1250.73 905.897 1259.4 890.526 1265.13C862.198 1275.67 817.566 1279.76 788.239 1273.98C778.464 1272.06 769.062 1268.92 759.744 1265.44C788.99 1260.6 851.657 1245.24 869.871 1220.93C871.652 1218.55 873.036 1215.54 872.766 1212.5C872.472 1209.18 870.337 1205.89 867.531 1204.18C857.888 1198.3 845.388 1194.94 834.766 1191.08C806.396 1206.23 769.48 1215.9 737.735 1206.12C690.052 1191.42 675.479 1129.33 637.691 1099.47C633.021 1095.78 627.801 1091.19 622.025 1089.45C616.496 1087.79 608.486 1088.41 602.721 1088.52C594.793 1088.69 583.864 1088.77 576.808 1092.71C574.541 1093.97 573.062 1095.25 572.738 1097.95C570.607 1115.71 615.759 1179.03 628.115 1193.89C641.659 1210.17 657.217 1224.67 671.394 1240.38C650.291 1235.81 630.454 1229.4 610.957 1220.02C555.214 1193.23 486.995 1135.67 453.688 1083.9C448.556 1075.92 440.679 1059.76 431.513 1056.94C429.782 1056.4 428.762 1056.86 427.221 1057.77C411.739 1066.92 388.523 1164.75 384.207 1186.64Q378.807 1214.55 375.814 1242.81C361.171 1379.84 401.63 1500.22 487.717 1606.55C510.013 1634.09 563.369 1691.61 592.856 1708.07Q581.882 1685.67 569.514 1664.01Q557.146 1642.35 543.433 1621.52C516.223 1580.01 485.391 1540.02 466.94 1493.53C459.497 1474.78 455.125 1454.34 450.855 1434.65C444.819 1406.82 440.922 1379.23 440.95 1350.69C498.773 1422.79 568.891 1485.31 665.012 1495.61C695.691 1498.9 725.105 1494.1 754.611 1485.92C768.266 1482.13 781.892 1477.71 795.918 1475.54C776.548 1490.74 706.029 1538.81 704.194 1560.29C703.979 1562.81 704.374 1564.84 706.314 1566.63C714.188 1573.91 736.232 1571.36 746.016 1569.5C755.285 1567.74 764.49 1565.4 773.671 1563.22C732.06 1609.68 705.775 1666.4 709.398 1729.76C713.565 1802.66 754.573 1885.49 809.443 1933.78C834.028 1955.41 856.171 1960.42 888.376 1959.94C898.062 1954.01 906.36 1947.24 914.412 1939.25C923.138 1930.62 931.824 1921.21 942.401 1914.82C990.021 1886.06 1116.73 1854.55 1117.1 1785.68C1117.17 1772.6 1115.31 1759.46 1112.72 1746.66C1107.72 1722.03 1087.59 1650.75 1071.02 1634.39C1068.93 1632.33 1067.14 1631.37 1064.28 1630.58C1062.93 1630.8 1062.29 1630.52 1061.46 1631.67C1047.96 1650.42 1047.37 1666.98 1020 1671.67C997.647 1675.5 973.754 1665.54 956.058 1652.48C933.923 1636.15 915.836 1610.04 911.737 1582.49C908.817 1562.87 914.258 1544.21 926.023 1528.4C959.664 1483.18 1039.82 1464.06 1093.55 1456.5C1181.58 1444.12 1309.33 1450.59 1382.73 1505.82C1402.12 1520.41 1416.35 1539.7 1419.56 1564.19C1422.01 1582.81 1417.99 1598.46 1406.5 1613.38C1382.71 1644.27 1336.58 1665.96 1298.44 1670.56C1287.87 1671.84 1276.11 1671.38 1267.56 1664.22C1260.57 1658.37 1258.4 1650.01 1257.87 1641.25C1257.6 1636.85 1258.41 1632.11 1256.19 1628.29C1251.56 1627.56 1247.35 1629.84 1243.65 1632.58C1219.22 1650.67 1211.44 1707.1 1207.88 1736.39C1203.97 1768.61 1201.06 1805.75 1218.41 1834.59C1259.73 1858.12 1306.27 1872.97 1348.98 1894.2C1372.31 1905.79 1403.24 1930.51 1425.47 1937.5C1440.21 1942.13 1457.25 1940.98 1472 1936.88C1503.15 1928.23 1528.99 1901.22 1544.42 1873.72C1570.99 1826.36 1576.04 1767.92 1561.24 1715.95C1551.48 1681.65 1533.5 1649.27 1511.77 1621.06C1506.37 1614.05 1500.1 1607.72 1494.67 1600.76C1492.68 1598.21 1491.69 1596.99 1492.33 1593.79C1496.81 1588.6 1501.9 1585.43 1507.81 1582.11C1529.93 1569.68 1527.01 1559.89 1525.25 1536.53C1520.66 1475.48 1505.22 1414.62 1491.78 1355.02C1528.98 1357.03 1565.39 1353.8 1602.29 1349.19C1611.13 1391.21 1630.82 1430.13 1667.64 1454.23C1693.54 1471.18 1722.89 1475.18 1752.9 1468.66C1810.3 1456.19 1866.4 1405.97 1897.21 1357.34C1925.08 1313.35 1929.47 1269.69 1917.9 1219.35C1907.49 1174.08 1886.63 1129.17 1859.8 1091.33C1854.04 1083.2 1847.9 1073.8 1839.31 1068.44C1837.56 1068.27 1836.96 1067.71 1835.57 1069.03C1825.85 1078.26 1829.82 1107.08 1822.89 1120.18C1813.31 1138.28 1797.16 1155.97 1783.92 1171.56C1724.29 1241.81 1656.76 1291.34 1560.88 1294.87C1520.7 1296.35 1480.65 1290.27 1441.99 1279.58C1413.36 1250.94 1389.44 1223.37 1375.02 1184.86C1412.15 1171.63 1450.76 1161.98 1486.89 1146.08C1547.06 1119.6 1603.56 1085.48 1665.06 1061.85Q1676.62 1057.34 1688.55 1053.94Q1700.48 1050.54 1712.68 1048.27C1733.39 1044.46 1755.16 1043.11 1774.77 1034.92C1785.78 1030.32 1799.97 1022.39 1805.53 1011.45C1812.66 997.397 1803.41 975.654 1798.45 962.125C1794.69 951.87 1790.38 941.699 1787.35 931.203C1803.23 940.57 1819.58 948.777 1837.22 954.372C1864.38 906.539 1892.63 824.077 1895.11 769.279C1896.46 739.603 1892.26 710.722 1884.38 682.156Q1883.17 677.667 1881.86 673.205Q1880.55 668.744 1879.15 664.313Q1877.74 659.883 1876.23 655.485Q1874.72 651.087 1873.12 646.724Q1871.51 642.361 1869.81 638.035Q1868.11 633.709 1866.31 629.422Q1864.51 625.135 1862.61 620.89Q1860.71 616.645 1858.72 612.444Q1856.73 608.242 1854.65 604.086Q1852.56 599.931 1850.39 595.823Q1848.21 591.715 1845.94 587.657Q1843.67 583.599 1841.31 579.592Q1838.95 575.586 1836.51 571.634Q1834.06 567.682 1831.52 563.786Q1828.98 559.89 1826.36 556.051Q1823.74 552.213 1821.03 548.434Q1818.32 544.656 1815.53 540.939Q1812.73 537.223 1809.86 533.57Q1806.98 529.917 1804.02 526.329Q1801.07 522.741 1798.03 519.221Q1794.99 515.701 1791.88 512.249Q1788.76 508.798 1785.57 505.417Q1782.38 502.037 1779.11 498.729Q1775.85 495.421 1772.51 492.187Q1769.17 488.953 1765.76 485.795Q1762.34 482.637 1758.86 479.556Q1755.38 476.476 1751.83 473.474Q1748.28 470.472 1744.66 467.551Q1741.05 464.629 1737.36 461.79Q1733.68 458.95 1729.94 456.194Q1726.19 453.438 1722.39 450.767Q1718.58 448.095 1714.72 445.51C1735.33 388.25 1746.57 330.069 1747.03 269.077C1807.39 352.117 1862.68 445.48 1885.89 546.573C1892.56 575.635 1898.48 604.899 1904.73 634.055C1908.41 651.182 1911.41 669.846 1917.76 686.196C1938.23 622.56 1952.22 547.999 1939.36 481.544C1933.65 452.067 1921.98 423.109 1908.27 396.475Q1898 377.001 1886.33 358.335Q1874.66 339.67 1861.65 321.914C1828.57 276.195 1791.01 234.074 1754.3 191.304C1741.08 175.897 1729.28 158.534 1715.29 143.955C1710.55 139.025 1704.01 131.992 1697.29 130.198C1693.46 129.177 1689.06 129.616 1685.16 129.987C1681.64 132.201 1679.91 132.987 1678.92 137.313C1673.43 161.422 1674.59 187.105 1670.62 211.576C1659.33 281.094 1634.1 347.682 1602.87 410.56Z"/>
	<path fill="#D43838" transform="scale(0.220167 0.220167)" d="M1685.16 129.987C1689.06 129.616 1693.46 129.177 1697.29 130.198C1704.01 131.992 1710.55 139.025 1715.29 143.955C1729.28 158.534 1741.08 175.897 1754.3 191.304C1791.01 234.074 1828.57 276.195 1861.65 321.914Q1874.66 339.67 1886.33 358.335Q1898 377.001 1908.27 396.475C1921.98 423.109 1933.65 452.067 1939.36 481.544C1952.22 547.999 1938.23 622.56 1917.76 686.196C1911.41 669.846 1908.41 651.182 1904.73 634.055C1898.48 604.899 1892.56 575.635 1885.89 546.573C1862.68 445.48 1807.39 352.117 1747.03 269.077C1746.57 330.069 1735.33 388.25 1714.72 445.51Q1718.58 448.095 1722.39 450.767Q1726.19 453.438 1729.94 456.194Q1733.68 458.95 1737.36 461.79Q1741.05 464.629 1744.66 467.551Q1748.28 470.472 1751.83 473.474Q1755.38 476.476 1758.86 479.556Q1762.34 482.637 1765.76 485.795Q1769.17 488.953 1772.51 492.187Q1775.85 495.421 1779.11 498.729Q1782.38 502.037 1785.57 505.418Q1788.76 508.798 1791.88 512.249Q1794.99 515.701 1798.03 519.221Q1801.07 522.741 1804.02 526.329Q1806.98 529.917 1809.86 533.57Q1812.73 537.223 1815.53 540.939Q1818.32 544.656 1821.03 548.434Q1823.74 552.213 1826.36 556.051Q1828.98 559.89 1831.52 563.786Q1834.06 567.682 1836.51 571.634Q1838.95 575.586 1841.31 579.592Q1843.67 583.599 1845.94 587.656Q1848.21 591.715 1850.39 595.823Q1852.56 599.93 1854.65 604.086Q1856.73 608.242 1858.72 612.444Q1860.71 616.645 1862.61 620.89Q1864.51 625.135 1866.31 629.422Q1868.11 633.709 1869.81 638.035Q1871.51 642.361 1873.12 646.724Q1874.72 651.087 1876.23 655.485Q1877.74 659.883 1879.15 664.313Q1880.55 668.744 1881.86 673.205Q1883.17 677.667 1884.38 682.156C1892.26 710.722 1896.46 739.603 1895.11 769.279C1892.63 824.077 1864.38 906.539 1837.22 954.372C1819.58 948.777 1803.23 940.57 1787.35 931.203C1790.38 941.699 1794.69 951.87 1798.45 962.125C1803.41 975.654 1812.66 997.397 1805.53 1011.45C1799.97 1022.39 1785.78 1030.32 1774.77 1034.92C1755.16 1043.11 1733.39 1044.46 1712.68 1048.27Q1700.48 1050.54 1688.55 1053.94Q1676.62 1057.34 1665.06 1061.85C1603.56 1085.48 1547.06 1119.6 1486.89 1146.08C1450.76 1161.98 1412.15 1171.63 1375.02 1184.86C1389.44 1223.37 1413.36 1250.94 1441.99 1279.58C1480.65 1290.27 1520.7 1296.35 1560.88 1294.87C1656.76 1291.34 1724.29 1241.81 1783.92 1171.56C1797.16 1155.97 1813.31 1138.28 1822.89 1120.18C1829.82 1107.08 1825.85 1078.26 1835.57 1069.03C1836.96 1067.71 1837.56 1068.27 1839.31 1068.44C1847.9 1073.8 1854.04 1083.2 1859.8 1091.33C1886.63 1129.17 1907.49 1174.08 1917.9 1219.35C1929.47 1269.69 1925.08 1313.35 1897.21 1357.34C1866.4 1405.97 1810.3 1456.19 1752.9 1468.66C1722.89 1475.18 1693.54 1471.18 1667.64 1454.23C1630.82 1430.13 1611.13 1391.21 1602.29 1349.19C1565.39 1353.8 1528.98 1357.03 1491.78 1355.02C1505.22 1414.62 1520.66 1475.48 1525.25 1536.53C1527.01 1559.89 1529.93 1569.68 1507.81 1582.11C1501.9 1585.43 1496.81 1588.6 1492.33 1593.79C1491.69 1596.99 1492.68 1598.21 1494.67 1600.76C1500.1 1607.72 1506.37 1614.05 1511.77 1621.06C1533.5 1649.27 1551.48 1681.65 1561.24 1715.95C1576.04 1767.92 1570.99 1826.36 1544.42 1873.72C1528.99 1901.22 1503.15 1928.23 1472 1936.88C1457.25 1940.98 1440.21 1942.13 1425.47 1937.5C1403.24 1930.51 1372.31 1905.79 1348.98 1894.2C1306.27 1872.97 1259.73 1858.12 1218.41 1834.59C1201.06 1805.75 1203.97 1768.61 1207.88 1736.39C1211.44 1707.1 1219.22 1650.67 1243.65 1632.58C1247.35 1629.84 1251.56 1627.56 1256.19 1628.29C1258.41 1632.11 1257.6 1636.85 1257.87 1641.25C1258.4 1650.01 1260.57 1658.37 1267.56 1664.22C1276.11 1671.38 1287.87 1671.84 1298.44 1670.56C1336.58 1665.96 1382.71 1644.27 1406.5 1613.38C1417.99 1598.46 1422.01 1582.81 1419.56 1564.19C1416.35 1539.7 1402.12 1520.41 1382.73 1505.82C1309.33 1450.59 1181.58 1444.12 1093.55 1456.5C1039.82 1464.06 959.664 1483.18 926.023 1528.4C914.258 1544.21 908.817 1562.87 911.737 1582.49C915.836 1610.04 933.923 1636.15 956.058 1652.48C973.754 1665.54 997.647 1675.5 1020 1671.67C1047.37 1666.98 1047.96 1650.42 1061.46 1631.67C1062.29 1630.52 1062.93 1630.8 1064.28 1630.58C1067.14 1631.37 1068.93 1632.33 1071.02 1634.39C1087.59 1650.75 1107.72 1722.03 1112.72 1746.66C1115.31 1759.46 1117.17 1772.6 1117.1 1785.68C1116.73 1854.55 990.021 1886.06 942.401 1914.82C931.824 1921.21 923.138 1930.62 914.412 1939.25C906.36 1947.24 898.062 1954.01 888.376 1959.94C856.171 1960.42 834.028 1955.41 809.443 1933.78C754.573 1885.49 713.565 1802.66 709.398 1729.76C705.775 1666.4 732.06 1609.68 773.671 1563.22C764.49 1565.4 755.285 1567.74 746.016 1569.5C736.232 1571.36 714.188 1573.91 706.314 1566.63C704.374 1564.84 703.979 1562.81 704.194 1560.29C706.029 1538.81 776.548 1490.74 795.918 1475.54C781.892 1477.71 768.266 1482.13 754.611 1485.92C725.105 1494.1 695.691 1498.9 665.012 1495.61C568.891 1485.31 498.773 1422.79 440.95 1350.69C440.922 1379.23 444.819 1406.82 450.855 1434.65C455.125 1454.34 459.497 1474.78 466.94 1493.53C485.391 1540.02 516.223 1580.01 543.433 1621.52Q557.146 1642.35 569.514 1664.01Q581.882 1685.67 592.856 1708.07C563.369 1691.61 510.013 1634.09 487.717 1606.55C401.63 1500.22 361.171 1379.84 375.814 1242.81Q378.807 1214.55 384.207 1186.64C388.523 1164.75 411.739 1066.92 427.221 1057.77C428.762 1056.86 429.782 1056.4 431.513 1056.94C440.679 1059.76 448.556 1075.92 453.688 1083.9C486.995 1135.67 555.214 1193.23 610.957 1220.02C630.454 1229.4 650.291 1235.81 671.394 1240.38C657.217 1224.67 641.659 1210.17 628.115 1193.89C615.759 1179.03 570.607 1115.71 572.738 1097.95C573.062 1095.25 574.541 1093.97 576.808 1092.71C583.864 1088.77 594.793 1088.69 602.721 1088.52C608.486 1088.41 616.496 1087.79 622.025 1089.45C627.801 1091.19 633.021 1095.78 637.691 1099.47C675.479 1129.33 690.052 1191.42 737.735 1206.12C769.48 1215.9 806.396 1206.23 834.766 1191.08C845.388 1194.94 857.888 1198.3 867.531 1204.18C870.337 1205.89 872.472 1209.18 872.766 1212.5C873.036 1215.54 871.652 1218.55 869.871 1220.93C851.657 1245.24 788.99 1260.6 759.744 1265.44C769.062 1268.92 778.464 1272.06 788.239 1273.98C817.566 1279.76 862.198 1275.67 890.526 1265.13C905.897 1259.4 920.559 1250.73 934.076 1241.53C951.088 1229.95 982.629 1204.91 985.981 1183.03C986.431 1180.1 986.086 1175.81 983.693 1173.71C979.173 1169.74 962.689 1168.34 956.504 1167.13Q938.78 1163.63 921.43 1158.6Q904.079 1153.57 887.234 1147.04C854.16 1134.6 821.748 1119.14 790.566 1102.57C745.031 1078.36 703.198 1052.06 651.819 1041.4C623.914 1035.61 597.998 1034 570.226 1040.53C557.319 1043.57 543.86 1047.69 530.478 1047.13C513.659 1046.42 500.556 1035.92 489.73 1024C477.608 1010.65 467.674 995.058 458.332 979.672C414.315 907.174 400.067 825.268 412.569 741.847C417.779 707.078 429.342 673.744 431.11 638.426C417.599 658.488 410.2 683.086 394.395 701.333C392.7 699.167 390.917 696.947 389.477 694.596C381.59 681.725 379.378 664.903 376.799 650.296C367.737 598.958 365.152 547.253 375.822 495.888Q377.124 489.504 378.66 483.171Q380.196 476.839 381.964 470.568Q383.732 464.296 385.728 458.094Q387.725 451.891 389.949 445.767Q392.172 439.642 394.619 433.603Q397.066 427.564 399.733 421.619Q402.401 415.674 405.285 409.831Q408.168 403.988 411.265 398.255C438.569 347.389 577.803 161.357 619.516 135.01C623.015 132.8 627.759 130.197 632.004 131.469C642.969 134.755 640.274 203.326 642.001 215.96C650.42 277.547 681.243 359.468 713.009 413.011C840.447 385.008 1038.64 364.161 1161.88 414.704C1271.33 378.997 1372.61 379.779 1485.97 395.033C1525.25 400.318 1563.06 409.095 1602.87 410.56C1634.1 347.682 1659.33 281.094 1670.62 211.576C1674.59 187.105 1673.43 161.422 1678.92 137.313C1679.91 132.987 1681.64 132.201 1685.16 129.987ZM436.158 631.493C440.097 624.625 443.824 617.39 448.254 610.84C489.589 550.409 536.66 499.431 596.476 456.915C592.718 436.677 570.697 288.913 566.319 283.711L566.306 284.494L564.483 283.159C498.177 387.463 424.732 502.193 436.158 631.493ZM1280.41 1173.36C1285.85 1179.45 1291.31 1183.78 1298.2 1188.21C1293.98 1177.52 1287.6 1167.53 1284.11 1156.67C1265.38 1098.36 1270.61 1030.81 1294.93 974.996C1298.66 966.445 1311.83 945.134 1310.05 936.345L1308.44 935.424C1269.87 975.058 1242.07 1026.81 1242.96 1083.32C1243.52 1118.71 1257.89 1146.8 1280.41 1173.36ZM1062 1145.06C1086.72 1093.38 1092.55 1059.86 1072.85 1004.44C1064.47 980.879 1048.01 945.544 1024.72 933.082C1039.91 977.196 1054.58 1021.46 1056.87 1068.48Q1057.64 1084.1 1056.61 1099.71C1055.8 1110.74 1047.69 1151.37 1050.74 1158.5C1052.96 1158.67 1052.1 1159 1053.84 1157.52C1057.44 1154.47 1060 1149.29 1062 1145.06Z"/>
	<path fill="#D43838" transform="scale(0.220167 0.220167)" d="M1140.21 1958.84Q1149.94 1958.54 1159.64 1959.22Q1169.35 1959.91 1178.94 1961.58C1252.44 1974.3 1298.66 2010.15 1352.77 2057.5C1365.19 2068.36 1379.12 2077.64 1388.77 2091.21C1347.29 2088.37 1319.42 2071.03 1282.82 2054.59C1259.98 2044.34 1234.71 2035.85 1210.35 2030.15C1131.75 2011.98 1067.56 2037.04 998.03 2070.21C989.941 2074.07 975.257 2083.26 966.302 2082.47C963.359 2082.21 962.961 2081.09 961.569 2078.86C960.776 2064.34 978.572 2042.4 987.698 2032C1024.92 1989.59 1084.44 1962.61 1140.21 1958.84Z"/>
	<path fill="#D43838" transform="scale(0.220167 0.220167)" d="M1708.94 1122.65C1710.05 1122.88 1711.67 1124 1712.46 1124.73C1715.06 1127.14 1715.56 1130.75 1715.51 1134.1C1715.16 1156.57 1696.24 1182.21 1680.78 1197.17C1649.2 1227.74 1601.26 1246.88 1557.28 1246.17C1533.8 1245.8 1502.59 1238.75 1485.7 1221.17C1482.75 1217.91 1479.66 1214.64 1477.09 1211.08C1474.65 1207.69 1472.24 1203.78 1473.02 1199.52C1482.38 1194.16 1513.81 1209.97 1524.83 1213.01C1535.94 1216.07 1547.64 1218.27 1559.2 1217.97C1602.95 1216.84 1630.55 1179.54 1657.79 1150.58C1671.77 1135.73 1687.84 1123.21 1708.94 1122.65Z"/>
	<path fill="#D43838" transform="scale(0.220167 0.220167)" d="M628.554 2006.78C628.783 2006.92 629.018 2007.06 629.241 2007.21C648.898 2020.72 668.577 2063.13 685.799 2082.97C696.735 2095.56 730.694 2121.82 733.954 2135.71C734.156 2136.57 734.313 2137.44 734.47 2138.31C703.1 2128.95 677.367 2110.4 657.006 2084.85C639.262 2062.58 625.376 2035.99 628.554 2006.78Z"/>
</svg>
